<?xml version="1.0" encoding="UTF-8"?>
<svg version="1.1" xmlns="http://www.w3.org/2000/svg" width="500" height="500">
<path d="M0 0 C165 0 330 0 500 0 C500 165 500 330 500 500 C335 500 170 500 0 500 C0 335 0 170 0 0 Z " fill="#000000" transform="translate(0,0)"/>
<path d="M0 0 C212.20534224 0 212.20534224 0 243.40625 30.33984375 C265.03757704 53.19348892 268.73837152 80.4016905 268.12744141 110.44970703 C267.51082689 127.62750066 261.88013893 143.61081436 251 157 C250.33355469 157.82886719 249.66710937 158.65773437 248.98046875 159.51171875 C236.55335731 174.13316698 218.2989777 184.48974604 200 190 C199.67 191.98 199.34 193.96 199 196 C200.32451172 196.40412109 200.32451172 196.40412109 201.67578125 196.81640625 C221.39885187 203.83883915 231.88600946 222.03251207 240.38656616 239.86550903 C245.33868653 250.55643515 248.93498512 261.70156642 252.625 272.875 C253.42455934 275.26814916 254.22512323 277.6609629 255.02661133 280.0534668 C256.75462277 285.21854046 258.47522494 290.3859995 260.19091797 295.55517578 C262.95318441 303.87471204 265.74491583 312.18425817 268.53821564 320.49341583 C270.66422727 326.82051223 272.78427086 333.14961113 274.90496063 339.47849274 C275.68744666 341.81234091 276.47108701 344.14579893 277.25494385 346.47918701 C278.4903871 350.15816479 279.72112718 353.83868437 280.94833183 357.52041817 C281.40359026 358.88384724 281.86040948 360.24675626 282.31886482 361.60911369 C282.94682725 363.4760425 283.56867041 365.34502628 284.19018555 367.21411133 C284.7171125 368.78942375 284.7171125 368.78942375 285.25468445 370.39656067 C286 373 286 373 286 376 C260.59 376 235.18 376 209 376 C207.02 369.07 205.04 362.14 203 355 C200.45854183 347.15507019 200.45854183 347.15507019 197.84936523 339.3347168 C197.54795624 338.44489105 197.24654724 337.55506531 196.93600464 336.63827515 C196.62712311 335.72639435 196.31824158 334.81451355 196 333.875 C194.67561783 329.94233404 193.35500893 326.00840691 192.03515625 322.07421875 C191.53460472 320.58372765 191.53460472 320.58372765 191.02394104 319.06312561 C188.68412005 312.08184508 186.38860075 305.08711321 184.12109375 298.08203125 C183.80911041 297.11869873 183.49712708 296.15536621 183.1756897 295.1628418 C181.69317048 290.58080108 180.21589189 285.99713084 178.74414062 281.41162109 C169.89735634 249.82902306 169.89735634 249.82902306 148.625 226.6875 C125.41095359 215.01705044 100.0266958 219.51032737 74 219 C74 270.81 74 322.62 74 376 C49.58 376 25.16 376 0 376 C0 251.92 0 127.84 0 0 Z " fill="#FEA400" transform="translate(49,56)"/>
<path d="M0 0 C12.00375 -0.0825 24.0075 -0.165 36.375 -0.25 C42.00248291 -0.30462402 42.00248291 -0.30462402 47.74365234 -0.36035156 C52.4230957 -0.37841797 52.4230957 -0.37841797 54.63272095 -0.3817749 C56.13447858 -0.38780731 57.63622033 -0.40163792 59.1378479 -0.42230225 C76.60830568 -0.650117 95.93731606 1.33594465 109.375 13.6875 C120.31258022 25.71656432 122.85905507 40.7564097 122.34765625 56.52734375 C121.57459428 69.38123085 117.24589017 81.14134011 108 90.25 C93.4187953 102.31551947 75.16053136 102.31703468 57.2265625 102.1953125 C55.75154777 102.19236186 54.27653093 102.19032773 52.80151367 102.18920898 C47.40930994 102.1788399 42.01715141 102.15091829 36.625 102.125 C24.53875 102.08375 12.4525 102.0425 0 102 C0 68.34 0 34.68 0 0 Z " fill="#010100" transform="translate(123,114)"/>
<path d="M0 0 C9.51999867 6.9868512 15.3575698 16.93958898 17.24609375 28.6484375 C18.59853072 40.2709427 15.4261649 53.33976466 8.15625 62.5390625 C-0.88220474 72.52017816 -11.24790539 78.12756074 -24.74609375 78.8671875 C-32.85826542 79.1056214 -40.18607682 78.88244073 -47.75390625 75.6484375 C-48.58148438 75.31972656 -49.4090625 74.99101562 -50.26171875 74.65234375 C-60.76358145 70.01161237 -67.56269681 62.23587018 -71.75390625 51.6484375 C-72.12 50.7615625 -72.48609375 49.8746875 -72.86328125 48.9609375 C-74.05230971 44.53858602 -74.08343024 40.39496198 -74.06640625 35.8359375 C-74.08251953 34.98451172 -74.09863281 34.13308594 -74.11523438 33.25585938 C-74.12344088 22.48071916 -70.21368252 12.57167304 -62.8671875 4.6015625 C-58.58260959 0.66210776 -54.14117777 -2.17651456 -48.75390625 -4.3515625 C-48.07457031 -4.650625 -47.39523437 -4.9496875 -46.6953125 -5.2578125 C-32.09613129 -10.72301725 -12.87867993 -8.44841403 0 0 Z " fill="#FDA300" transform="translate(452.75390625,355.3515625)"/>
</svg>
