<?xml version="1.0" encoding="UTF-8"?>
<svg version="1.1" xmlns="http://www.w3.org/2000/svg" width="500" height="500">
<path d="M 250,0 A 250,250 0 1,1 250,500 A 250,250 0 1,1 250,0 Z" fill="#000000" transform="translate(0,0)"/>
<path d="M0 0 C20.38558731 -0.0703787 40.77114964 -0.12312855 61.15683365 -0.15543652 C70.62429133 -0.17084275 80.0916731 -0.19181138 89.55908203 -0.22631836 C97.820052 -0.25641349 106.08096695 -0.27562024 114.34199023 -0.28226548 C118.70781193 -0.28614403 123.07347633 -0.29512538 127.43924713 -0.31719017 C170.71425602 -0.52714433 209.69376075 5.88153322 242.25 36.8125 C262.71883825 58.1858532 271.77950247 84.64658185 271.46044922 113.94433594 C271.12638027 126.08832981 269.47688696 137.63559463 265 149 C264.66355469 149.91910156 264.32710938 150.83820313 263.98046875 151.78515625 C255.01984363 175.01085682 236.04646423 192.8457633 213.62939453 202.99755859 C208.80303897 205.12797237 204.22066487 207.0476872 199 208 C221.56095662 284.53734163 221.56095662 284.53734163 267.6015625 346.046875 C268.06304687 346.36140625 268.52453125 346.6759375 269 347 C269 347.33 269 347.66 269 348 C230.39 348 191.78 348 152 348 C153.485 343.545 153.485 343.545 155 339 C157.58490081 322.77974741 147.69311442 304.39251361 142.21908569 289.48980713 C139.98649636 283.41038052 137.76668937 277.32628777 135.546875 271.2421875 C135.3179122 270.61498684 135.08894939 269.98778618 134.85304832 269.34157944 C128.95042044 253.16884974 123.1757203 236.95058801 117.41577148 220.7265625 C110.08283218 200.10027364 102.54165988 179.55068214 95 159 C94.92974861 179.48921187 94.87693307 199.97839912 94.84456348 220.46770668 C94.82913058 229.98241846 94.80810988 239.49705517 94.77368164 249.01171875 C94.74366931 257.30998678 94.72439904 265.6082004 94.71773452 273.9065212 C94.7138422 278.29562519 94.70477032 282.68457361 94.68280983 287.07362747 C94.66225715 291.21536318 94.65620361 295.35688109 94.66067696 299.49866295 C94.65986007 301.00859834 94.65400726 302.51854198 94.64238358 304.02843285 C94.524719 320.1191431 97.81515846 333.63031693 105 348 C70.68 348 36.36 348 1 348 C2.98 343.71 4.96 339.42 7 335 C7.91549721 331.79199743 8.70143189 328.80898033 9.3125 325.5625 C9.46783203 324.81291016 9.62316406 324.06332031 9.78320312 323.29101562 C10.21155067 321.19707636 10.61888053 319.10303606 11 317 C11.25508142 315.79096244 11.25508142 315.79096244 11.51531601 314.55749989 C12.1800159 309.67871327 12.14453603 304.87124451 12.14044189 299.95280457 C12.14341302 298.83669574 12.14638414 297.72058691 12.1494453 296.5706566 C12.15812063 292.82859095 12.15963959 289.08655733 12.16113281 285.34448242 C12.16576196 282.66185353 12.17076643 279.97922754 12.17617798 277.29660034 C12.18974246 270.00472609 12.19578377 262.71285735 12.20018864 255.42097259 C12.20295562 250.86152706 12.20719394 246.30208364 12.21169281 241.74263954 C12.22388562 229.10221967 12.23418322 216.46180147 12.2375679 203.82137585 C12.23778747 203.01277003 12.23800703 202.20416422 12.23823325 201.3710552 C12.23845153 200.56057592 12.23866981 199.75009663 12.2388947 198.91505736 C12.23933816 197.27288004 12.23978472 195.63070271 12.24023438 193.98852539 C12.2404558 193.17395861 12.24067723 192.35939184 12.24090537 191.52014122 C12.24484701 178.34350093 12.26228154 165.16691616 12.2855939 151.99029728 C12.30937224 138.44004435 12.32177278 124.88981919 12.32293582 111.33954507 C12.32384923 103.74063202 12.32951621 96.14179121 12.34775543 88.54289818 C12.36324454 82.06715616 12.36822563 75.59150869 12.36001733 69.11575165 C12.35614099 65.8184139 12.35856125 62.52130353 12.37107468 59.22398186 C12.44577618 38.30053989 12.14826518 17.91942726 0 0 Z " fill="#FEA400" transform="translate(123,65)"/>
<path d="M0 0 C9.61125 -0.0825 19.2225 -0.165 29.125 -0.25 C33.63244873 -0.30462402 33.63244873 -0.30462402 38.23095703 -0.36035156 C40.65656829 -0.37205192 43.08218751 -0.38224054 45.5078125 -0.390625 C47.34363892 -0.4213208 47.34363892 -0.4213208 49.21655273 -0.45263672 C62.81995727 -0.4580424 75.22594475 2.50408626 85.18359375 12.10546875 C94.39260826 21.92278514 97.47097761 31.841132 97.24609375 45.28125 C96.46469335 57.08907833 90.7502076 67.19465755 82.19140625 75.25 C71.37420121 83.88833843 58.40863209 85.46173335 45.01953125 85.29296875 C43.87077515 85.28994751 42.72201904 85.28692627 41.53845215 85.28381348 C37.29637513 85.26825933 33.05442739 85.22637678 28.8125 85.1875 C19.304375 85.125625 9.79625 85.06375 0 85 C0 56.95 0 28.9 0 0 Z " fill="#000000" transform="translate(217,134)"/>
</svg>
